<svg width="248" height="50" viewBox="0 0 248 50" fill="none" xmlns="http://www.w3.org/2000/svg">
<path d="M26.4156 26.8883L30.5031 30.9533C30.9184 31.3658 31.48 31.5972 32.0653 31.5972C32.6507 31.5972 33.2123 31.3658 33.6276 30.9533L37.7142 26.8883C37.9192 26.6847 38.082 26.4425 38.1931 26.1757C38.3041 25.9089 38.3613 25.6228 38.3613 25.3338C38.3613 25.0448 38.3041 24.7587 38.1931 24.4919C38.082 24.2251 37.9192 23.9829 37.7142 23.7793L33.6272 19.7115C33.2118 19.2991 32.6502 19.0676 32.0649 19.0676C31.4795 19.0676 30.9179 19.2991 30.5026 19.7115L26.4156 23.7779C26.2105 23.9815 26.0478 24.2237 25.9367 24.4905C25.8256 24.7573 25.7684 25.0434 25.7684 25.3324C25.7684 25.6214 25.8256 25.9075 25.9367 26.1743C26.0478 26.4411 26.2105 26.6833 26.4156 26.8869" fill="#94B4C1"/>
<path d="M23.7432 49.6512L0.494228 26.52C0.337583 26.3644 0.213265 26.1793 0.128431 25.9755C0.0435977 25.7716 -7.62939e-05 25.553 -7.62939e-05 25.3322C-7.62939e-05 25.1114 0.0435977 24.8928 0.128431 24.6889C0.213265 24.4851 0.337583 24.3 0.494228 24.1444L23.7432 1.01226C23.909 0.847076 24.12 0.734605 24.3497 0.68899C24.5793 0.643374 24.8172 0.666649 25.0337 0.755889C25.2501 0.845129 25.4353 0.996352 25.566 1.19055C25.6967 1.38475 25.7671 1.61325 25.7683 1.84734V14.4528C25.7683 14.6079 25.7375 14.7615 25.6779 14.9046C25.6182 15.0478 25.5308 15.1777 25.4207 15.287L16.9059 23.761C16.6986 23.9667 16.5341 24.2114 16.4218 24.481C16.3095 24.7506 16.2517 25.0397 16.2517 25.3317C16.2517 25.6238 16.3095 25.9129 16.4218 26.1825C16.5341 26.4521 16.6986 26.6968 16.9059 26.9025L25.4207 35.3747C25.5308 35.4841 25.6182 35.6142 25.6779 35.7575C25.7376 35.9008 25.7683 36.0545 25.7683 36.2098V48.8166C25.7672 49.0507 25.6968 49.2792 25.566 49.4734C25.4352 49.6676 25.25 49.8188 25.0335 49.908C24.817 49.9972 24.579 50.0203 24.3494 49.9745C24.1198 49.9288 23.9089 49.8166 23.7432 49.6512Z" fill="#E9E9E8"/>
<path d="M40.3871 1.01228L63.636 24.1453C63.7926 24.3009 63.917 24.486 64.0018 24.6899C64.0866 24.8937 64.1303 25.1123 64.1303 25.3331C64.1303 25.5539 64.0866 25.7726 64.0018 25.9764C63.917 26.1803 63.7926 26.3653 63.636 26.5209L40.3871 49.654C40.2212 49.8192 40.0102 49.9316 39.7806 49.9773C39.551 50.0229 39.313 49.9996 39.0966 49.9104C38.8802 49.8211 38.695 49.6699 38.5642 49.4757C38.4335 49.2815 38.3631 49.053 38.3619 48.8189V36.2089C38.3619 36.0538 38.3927 35.9002 38.4524 35.757C38.512 35.6139 38.5994 35.4839 38.7096 35.3747L47.2244 26.9025C47.4316 26.6968 47.5962 26.4521 47.7084 26.1825C47.8207 25.9129 47.8785 25.6238 47.8785 25.3318C47.8785 25.0397 47.8207 24.7506 47.7084 24.481C47.5962 24.2114 47.4316 23.9667 47.2244 23.761L38.7109 15.2888C38.6008 15.1794 38.5134 15.0493 38.4537 14.906C38.394 14.7627 38.3633 14.609 38.3633 14.4537V1.8469C38.3646 1.61303 38.4351 1.38478 38.5657 1.1908C38.6964 0.996827 38.8814 0.845773 39.0976 0.756608C39.3138 0.667443 39.5516 0.64414 39.781 0.689627C40.0104 0.735114 40.2212 0.847362 40.3871 1.01228Z" fill="#E9E9E8"/>
<path d="M246.853 37.3115H244.155C243.452 37.3115 243.1 36.9597 243.1 36.3147V29.1613C243.1 28.487 242.748 28.1645 242.074 28.1645H238.82C238.145 28.1645 237.823 28.487 237.823 29.1613V36.3147C237.823 36.9597 237.471 37.3115 236.767 37.3115H232.663C231.959 37.3115 231.608 36.9597 231.608 36.3147V16.467C231.608 15.7634 231.959 15.4116 232.663 15.4116H236.738C237.471 15.4116 237.823 15.7634 237.823 16.467V23.122C237.823 23.7377 238.145 24.0601 238.82 24.0601H242.074C242.748 24.0601 243.1 23.7377 243.1 23.122V16.467C243.1 15.7634 243.452 15.4116 244.126 15.4116H246.853C247.556 15.4116 247.908 15.7634 247.908 16.467V36.3147C247.908 36.9597 247.556 37.3115 246.853 37.3115Z" fill="#94B4C1"/>
<path d="M217.867 21.275V22.6822C217.867 23.5324 217.925 23.7083 218.688 23.8256L224.405 24.7051C227.395 25.1742 228.098 26.171 228.098 28.8975V31.2135C228.098 36.1095 227.16 37.3115 221.649 37.3115H217.72C214.437 37.3115 212.531 36.4613 212.531 33.0312V31.7999C212.531 31.2722 212.766 31.0376 213.293 31.0376H216.665C217.075 31.0376 217.31 31.2135 217.31 31.624V32.4742C217.31 33.1485 217.574 33.383 218.482 33.383H221.062C222.088 33.383 222.411 33.0898 222.411 31.4774V30.1874C222.411 29.4252 222.088 29.1906 221.473 29.1027L216.313 28.2818C213.469 27.8421 212.443 26.9039 212.443 23.8256V21.5096C212.443 16.6136 213.381 15.4116 219.01 15.4116H221.795C226.105 15.4116 227.688 16.0566 227.688 19.7212V20.6007C227.688 21.1578 227.424 21.3923 226.896 21.3923H223.672C223.261 21.3923 223.056 21.2164 223.056 20.8059V20.4835C223.056 19.6626 222.821 19.3694 221.942 19.3694H219.215C218.189 19.3694 217.867 19.6333 217.867 21.275Z" fill="#94B4C1"/>
<path d="M198.361 20.4541V25.6726C198.361 26.2296 198.654 26.5228 199.182 26.5228H202.348C202.875 26.5228 203.139 26.2296 203.139 25.6726V20.4541C203.139 19.7212 202.905 19.3108 202.143 19.3108H199.504C198.654 19.3108 198.361 19.6626 198.361 20.4541ZM209.091 29.4252V36.2561C209.091 36.9597 208.798 37.3115 208.211 37.3115H204.957C204.371 37.3115 204.077 36.9597 204.077 36.2561V30.979C204.077 30.4513 203.843 30.2167 203.374 30.2167H197.716C197.247 30.2167 197.012 30.4513 197.012 30.979V36.2561C197.012 36.9597 196.748 37.3115 196.162 37.3115H191.999C191.354 37.3115 191.061 36.9597 191.061 36.2561V29.132C191.061 28.018 191.207 27.7248 191.94 27.0798C192.439 26.6401 192.673 26.3469 192.673 25.7605V18.4899C192.673 16.2325 193.729 15.4116 195.869 15.4116H204.165C206.511 15.4116 207.185 16.2325 207.185 18.4899V26.083C207.185 26.6694 207.478 26.9332 208.065 27.4023C208.856 27.9886 209.091 28.3404 209.091 29.4252Z" fill="#94B4C1"/>
<path d="M171.628 35.7577V16.9947C171.628 15.8807 172.097 15.4116 173.211 15.4116H183.267C186.902 15.4116 187.84 16.6722 187.84 20.0437V29.0441C187.84 31.7999 187.518 33.2364 186.843 34.4091C185.729 36.2561 183.765 37.3115 180.951 37.3115H173.211C172.097 37.3115 171.628 36.8424 171.628 35.7577ZM179.455 33.383C180.511 33.383 181.214 32.9432 181.596 32.1224C181.801 31.624 181.918 30.979 181.918 29.0147V20.6007C181.918 19.7212 181.625 19.3694 180.657 19.3694H177.462C177.081 19.3694 176.905 19.5746 176.905 19.9557V32.7673C176.905 33.1485 177.081 33.383 177.462 33.383H179.455Z" fill="#94B4C1"/>
<path d="M143.08 15.4116H153.077C157.035 15.4116 158.735 15.8513 158.735 19.9851V36.2854C158.735 36.9597 158.383 37.3115 157.68 37.3115H154.572C153.868 37.3115 153.517 36.9597 153.517 36.2854V21.3043C153.517 19.8678 153.165 19.516 151.904 19.516H149.5C148.621 19.516 148.415 19.7798 148.415 20.718V36.2854C148.415 36.9597 148.093 37.3115 147.36 37.3115H143.08C142.376 37.3115 142.024 36.9597 142.024 36.2854V16.467C142.024 15.7634 142.376 15.4116 143.08 15.4116Z" fill="white"/>
<path d="M136.886 28.1059H130.758C130.289 28.1059 130.025 28.3698 130.025 28.8975V32.6794C130.025 33.0898 130.26 33.295 130.641 33.295H137.355C137.882 33.295 138.117 33.5589 138.117 34.0573V36.432C138.117 37.0183 137.853 37.3115 137.296 37.3115H126.185C124.778 37.3115 124.045 36.6665 124.045 35.3179V17.024C124.045 15.9686 124.602 15.4116 125.686 15.4116H137.061C137.589 15.4116 137.853 15.6754 137.853 16.2032V18.6658C137.853 19.1935 137.589 19.4574 137.061 19.4574H130.582C130.201 19.4574 130.025 19.6333 130.025 20.0144V23.7083C130.025 24.1188 130.201 24.324 130.582 24.324H136.856C137.355 24.324 137.589 24.5879 137.589 25.0862V27.285C137.589 27.7834 137.355 28.0473 136.886 28.1059Z" fill="white"/>
<path d="M114.893 30.1581H111.141C110.701 30.1581 110.496 30.3926 110.496 30.8617V36.3147C110.496 36.9597 110.144 37.3115 109.411 37.3115H105.775C105.043 37.3115 104.691 36.9597 104.691 36.3147V17.5224C104.691 15.9393 105.131 15.4116 106.86 15.4116H114.688C119.701 15.4116 120.493 16.0859 120.493 21.6855V24.7931C120.493 28.1645 118.939 30.1581 114.893 30.1581ZM113.281 26.4642C114.659 26.4642 115.274 25.7605 115.274 24.1481V21.7148C115.274 19.9264 115.069 19.1642 113.457 19.1642H111.053C110.671 19.1642 110.496 19.3694 110.496 19.7798V25.8192C110.496 26.2296 110.701 26.4642 111.141 26.4642H113.281Z" fill="white"/>
<path d="M90.1392 20.4541V25.6726C90.1392 26.2296 90.4323 26.5228 90.96 26.5228H94.1263C94.654 26.5228 94.9178 26.2296 94.9178 25.6726V20.4541C94.9178 19.7212 94.6833 19.3108 93.9211 19.3108H91.2825C90.4323 19.3108 90.1392 19.6626 90.1392 20.4541ZM100.869 29.4252V36.2561C100.869 36.9597 100.576 37.3115 99.9897 37.3115H96.7355C96.1492 37.3115 95.856 36.9597 95.856 36.2561V30.979C95.856 30.4513 95.6215 30.2167 95.1524 30.2167H89.4942C89.0251 30.2167 88.7906 30.4513 88.7906 30.979V36.2561C88.7906 36.9597 88.5267 37.3115 87.9404 37.3115H83.7773C83.1324 37.3115 82.8392 36.9597 82.8392 36.2561V29.132C82.8392 28.018 82.9858 27.7248 83.7187 27.0798C84.2171 26.6401 84.4516 26.3469 84.4516 25.7605V18.4899C84.4516 16.2325 85.507 15.4116 87.6472 15.4116H95.9439C98.2893 15.4116 98.9636 16.2325 98.9636 18.4899V26.083C98.9636 26.6694 99.2568 26.9332 99.8431 27.4023C100.635 27.9886 100.869 28.3404 100.869 29.4252Z" fill="white"/>
</svg>
